<svg width="102" height="27" viewBox="0 0 102 27" fill="none" xmlns="http://www.w3.org/2000/svg">
<path d="M35.4793 3.66367C35.4793 3.58489 35.4793 3.54549 35.6073 3.54549H41.9104C42.9809 3.48607 44.0507 3.67468 45.0364 4.09663C46.0221 4.51857 46.897 5.16245 47.5929 5.97807C48.9816 7.82155 49.6788 10.0942 49.5626 12.3993C49.6969 14.6521 48.9955 16.8752 47.5929 18.6432C46.8711 19.4177 45.9855 20.0211 45.0006 20.4096C44.0158 20.7981 42.9567 20.9618 41.9005 20.8887H35.5975C35.5803 20.8902 35.563 20.8879 35.5468 20.882C35.5305 20.8761 35.5158 20.8667 35.5036 20.8545C35.4914 20.8423 35.482 20.8276 35.4761 20.8114C35.4702 20.7951 35.4679 20.7778 35.4694 20.7606L35.4793 3.66367ZM41.9596 5.63337H37.9513C37.8626 5.63337 37.8232 5.63337 37.8232 5.7614V18.6531C37.8232 18.7319 37.8232 18.7712 37.9513 18.7712H41.9596C42.6877 18.8129 43.4157 18.6861 44.0869 18.4009C44.7581 18.1157 45.3546 17.6796 45.8301 17.1266C46.8324 15.755 47.3205 14.0747 47.2088 12.3796C47.2963 10.6291 46.8048 8.89856 45.8104 7.45534C45.3636 6.863 44.7798 6.38781 44.1092 6.07049C43.4385 5.75317 42.7009 5.60318 41.9596 5.63337Z" fill="#1E2B3C"/>
<path d="M55.2354 3.6636V6.25375C55.2369 6.27094 55.2346 6.28825 55.2287 6.30447C55.2228 6.32069 55.2134 6.33541 55.2012 6.34762C55.189 6.35982 55.1743 6.3692 55.1581 6.3751C55.1419 6.38101 55.1246 6.38328 55.1074 6.38178H52.5172C52.4384 6.38178 52.3991 6.38178 52.3991 6.25375V3.6636C52.3975 3.6477 52.3995 3.63166 52.4049 3.61663C52.4103 3.6016 52.419 3.58795 52.4303 3.57665C52.4416 3.56536 52.4552 3.5567 52.4703 3.5513C52.4853 3.5459 52.5013 3.54389 52.5172 3.54542H55.1074C55.1862 3.54542 55.2354 3.54542 55.2354 3.6636ZM54.9793 8.58784V20.8C54.9809 20.8159 54.9789 20.8319 54.9735 20.8469C54.9681 20.862 54.9594 20.8756 54.9481 20.8869C54.9368 20.8982 54.9232 20.9069 54.9081 20.9123C54.8931 20.9177 54.8771 20.9197 54.8612 20.9181H52.7634C52.6748 20.9181 52.6354 20.9181 52.6354 20.8V8.54845C52.6354 8.46966 52.6354 8.43027 52.7634 8.43027H54.8415C54.8574 8.42874 54.8734 8.43075 54.8884 8.43615C54.9035 8.44155 54.9171 8.45021 54.9284 8.4615C54.9397 8.47279 54.9484 8.48645 54.9538 8.50148C54.9592 8.51651 54.9612 8.53255 54.9597 8.54845" fill="#1E2B3C"/>
<path d="M63.8134 23.9121C64.3007 23.958 64.792 23.8933 65.2507 23.7228C65.7094 23.5522 66.1237 23.2803 66.4627 22.9273C67.0367 22.2301 67.3377 21.3481 67.3096 20.4455V19.7856C67.3096 19.7364 67.3096 19.7068 67.221 19.6773C67.1919 19.6683 67.1606 19.6693 67.1321 19.68C67.1036 19.6907 67.0795 19.7105 67.0634 19.7364C66.6899 20.1367 66.2326 20.4495 65.724 20.6523C65.0481 20.9896 64.3029 21.165 63.5475 21.1644C62.7594 21.1855 61.9761 21.0353 61.2518 20.7242C60.5274 20.413 59.8793 19.9483 59.3521 19.3621C58.2109 18.0702 57.6143 16.3866 57.6877 14.6644C57.6089 12.9671 58.1753 11.3028 59.2733 10.0061C59.8098 9.41369 60.4697 8.94618 61.2065 8.63649C61.9433 8.3268 62.739 8.18246 63.5377 8.21363C64.2158 8.22298 64.8853 8.36693 65.5074 8.63712C66.0989 8.85099 66.6391 9.18649 67.093 9.62197C67.2111 9.7303 67.2899 9.72045 67.3392 9.62197L67.5854 8.63712C67.5854 8.55833 67.6642 8.51894 67.7036 8.51894H69.5551C69.6437 8.51894 69.6831 8.51894 69.6831 8.63712V20.4553C69.7105 21.2038 69.581 21.9497 69.3028 22.6451C69.0246 23.3406 68.604 23.9701 68.068 24.4932C67.5348 25.0053 66.9048 25.4059 66.2148 25.6714C65.5248 25.9369 64.7887 26.062 64.0498 26.0394C62.6384 26.0997 61.2427 25.7249 60.0513 24.9659C59.5883 24.6919 59.1935 24.3165 58.8967 23.8678C58.5999 23.4192 58.4087 22.909 58.3377 22.3758C58.3361 22.3599 58.3381 22.3438 58.3435 22.3288C58.3489 22.3138 58.3576 22.3001 58.3689 22.2888C58.3802 22.2775 58.3938 22.2689 58.4089 22.2635C58.4239 22.2581 58.4399 22.256 58.4558 22.2576H60.6028C60.6553 22.2576 60.6947 22.297 60.721 22.3758C60.9182 22.8348 61.2655 23.2133 61.7058 23.4492C62.3562 23.8158 63.0974 23.99 63.843 23.9515L63.8134 23.9121ZM60.0611 14.6939C60.0029 15.8313 60.3521 16.9522 61.046 17.8553C61.3732 18.2373 61.782 18.5409 62.2422 18.7438C62.7025 18.9466 63.2024 19.0435 63.7051 19.0273C64.2076 19.0522 64.7087 18.956 65.1663 18.747C65.6239 18.5379 66.0246 18.2219 66.3346 17.8258C67.0115 16.9102 67.3587 15.7925 67.3195 14.6545C67.3601 13.5134 67.013 12.3921 66.3346 11.4735C66.0246 11.0773 65.6239 10.7614 65.1663 10.5523C64.7087 10.3432 64.2076 10.2471 63.7051 10.272C63.1917 10.251 62.6804 10.3485 62.2108 10.5569C61.7412 10.7652 61.3258 11.0788 60.9968 11.4735C60.3045 12.385 59.9558 13.5114 60.0119 14.6545" fill="#1E2B3C"/>
<path d="M83.54 20.8788H81.6885C81.6392 20.8788 81.5999 20.8788 81.5605 20.7606L81.3142 19.7758C81.3142 19.6379 81.1862 19.6182 81.068 19.7265C80.0837 20.57 78.8468 21.0619 77.5521 21.125C76.7524 21.1609 75.9546 21.0198 75.2157 20.7116C74.4768 20.4035 73.8151 19.9359 73.2779 19.3424C72.1781 18.0351 71.6118 16.3611 71.6923 14.6546C71.6109 12.9479 72.1772 11.2735 73.2779 9.96668C73.8159 9.37354 74.4775 8.90563 75.216 8.59594C75.9545 8.28624 76.7519 8.1423 77.5521 8.17425C78.297 8.17303 79.032 8.34498 79.6991 8.67653C80.2058 8.89009 80.6696 9.19374 81.068 9.57274C81.137 9.64168 81.1862 9.66138 81.2355 9.63183C81.258 9.62387 81.2776 9.60925 81.2917 9.5899C81.3057 9.57056 81.3136 9.5474 81.3142 9.5235V3.6144C81.3142 3.53562 81.3142 3.49622 81.4423 3.49622H83.54C83.5559 3.4947 83.5719 3.49671 83.587 3.50211C83.602 3.50751 83.6157 3.51616 83.627 3.52746C83.6382 3.53875 83.6469 3.5524 83.6523 3.56743C83.6577 3.58247 83.6597 3.59851 83.6582 3.6144V20.7606C83.6597 20.7765 83.6577 20.7926 83.6523 20.8076C83.6469 20.8226 83.6382 20.8363 83.627 20.8476C83.6157 20.8589 83.602 20.8675 83.587 20.8729C83.5719 20.8783 83.5559 20.8803 83.54 20.8788ZM74.0362 14.6546C73.9779 15.792 74.3271 16.9129 75.0211 17.8159C75.3496 18.2118 75.7646 18.5269 76.2342 18.7369C76.7038 18.9469 77.2153 19.0463 77.7294 19.0273C78.2333 19.0521 78.7358 18.9561 79.195 18.747C79.6542 18.538 80.0566 18.2221 80.3688 17.8258C81.0254 16.903 81.3516 15.7857 81.2946 14.6546C81.3477 13.5208 81.022 12.4017 80.3688 11.4735C80.0604 11.0754 79.66 10.7581 79.202 10.5489C78.744 10.3396 78.2421 10.2446 77.7392 10.272C77.2245 10.251 76.7117 10.3484 76.2405 10.5567C75.7692 10.765 75.3521 11.0787 75.0211 11.4735C74.3288 12.385 73.9801 13.5114 74.0362 14.6546Z" fill="#1E2B3C"/>
<path d="M89.9514 3.66359V6.25374C89.9529 6.27094 89.9506 6.28825 89.9447 6.30446C89.9388 6.32068 89.9294 6.33541 89.9172 6.34761C89.905 6.35981 89.8903 6.36919 89.8741 6.3751C89.8578 6.381 89.8405 6.38328 89.8233 6.38177H87.243C87.1544 6.38177 87.115 6.38177 87.115 6.25374V3.66359C87.115 3.5848 87.115 3.54541 87.243 3.54541H89.8233C89.912 3.54541 89.9514 3.54541 89.9514 3.66359ZM89.7052 8.58783V20.8C89.7052 20.8787 89.7052 20.9181 89.5771 20.9181H87.4794C87.4635 20.9197 87.4475 20.9177 87.4324 20.9123C87.4174 20.9069 87.4037 20.8982 87.3924 20.8869C87.3811 20.8756 87.3725 20.862 87.3671 20.8469C87.3617 20.8319 87.3597 20.8159 87.3612 20.8V8.54844C87.3597 8.53254 87.3617 8.5165 87.3671 8.50147C87.3725 8.48644 87.3811 8.47279 87.3924 8.46149C87.4037 8.4502 87.4174 8.44154 87.4324 8.43614C87.4475 8.43074 87.4635 8.42873 87.4794 8.43026H89.5771C89.6658 8.43026 89.7052 8.43026 89.7052 8.54844" fill="#1E2B3C"/>
<path d="M100.007 10.272H98.7558C98.3028 10.26 97.8532 10.3523 97.4416 10.5419C97.0301 10.7315 96.6676 11.0131 96.3823 11.3652C95.7813 12.1065 95.4698 13.0409 95.5058 13.9947V20.7606C95.5073 20.7778 95.505 20.7951 95.4991 20.8113C95.4932 20.8275 95.4839 20.8423 95.4717 20.8545C95.4594 20.8667 95.4447 20.8761 95.4285 20.882C95.4123 20.8879 95.395 20.8901 95.3778 20.8886H93.2505C93.1717 20.8886 93.1323 20.8394 93.1323 20.7606V8.54849C93.1308 8.53259 93.1328 8.51655 93.1382 8.50152C93.1436 8.48648 93.1523 8.47283 93.1636 8.46154C93.1749 8.45025 93.1885 8.44159 93.2035 8.43619C93.2186 8.43079 93.2346 8.42878 93.2505 8.4303H95.102C95.102 8.4303 95.1907 8.4303 95.2301 8.54849L95.4763 9.65152C95.5288 9.80253 95.6174 9.80253 95.7422 9.65152C96.1112 9.21825 96.5622 8.86211 97.0692 8.60353C97.5762 8.34496 98.1293 8.18903 98.6967 8.1447H99.9475C99.9638 8.14333 99.9802 8.14538 99.9957 8.1507C100.011 8.15603 100.025 8.16452 100.037 8.17563C100.05 8.18674 100.059 8.20024 100.066 8.21526C100.072 8.23028 100.076 8.2465 100.076 8.26288V10.1144C100.076 10.203 100.076 10.2424 99.9475 10.2424" fill="#1E2B3C"/>
<path d="M13.2119 0H1.22631C1.0965 0.00252128 0.972711 0.0552112 0.880904 0.147018C0.789098 0.238824 0.736408 0.362615 0.733887 0.492424V23.8727C0.736408 24.0025 0.789098 24.1263 0.880904 24.2181C0.972711 24.3099 1.0965 24.3626 1.22631 24.3652H13.2119C16.4429 24.3652 19.5416 23.0816 21.8263 20.797C24.111 18.5123 25.3945 15.4136 25.3945 12.1826C25.3945 8.95156 24.111 5.85287 21.8263 3.56819C19.5416 1.28352 16.4429 4.81459e-08 13.2119 0ZM14.3839 20.6818C12.5704 20.9939 10.7047 20.7207 9.0569 19.9018C7.40908 19.0828 6.06468 17.7607 5.21836 16.1267C4.37205 14.4928 4.06776 12.6319 4.34955 10.8135C4.63134 8.99512 5.48458 7.3136 6.78573 6.01245C8.08688 4.7113 9.7684 3.85806 11.5868 3.57627C13.4052 3.29448 15.2661 3.59877 16.9 4.44508C18.534 5.2914 19.8561 6.6358 20.675 8.28363C21.494 9.93145 21.7672 11.7972 21.4551 13.6106C21.1514 15.3754 20.3085 17.0027 19.0422 18.269C17.776 19.5352 16.1487 20.3781 14.3839 20.6818Z" fill="#C2132C"/>
</svg>
